<svg width="32" height="32" viewBox="0 0 32 32" fill="none" xmlns="http://www.w3.org/2000/svg">
<rect width="32" height="32" fill="#1C1C21"/>
<path d="M14.589 26.3915C13.167 26.3915 11.97 26.0135 10.998 25.2575C10.035 24.5015 9.369 23.4845 9 22.2065L11.7945 21.545C11.9205 22.148 12.24 22.6655 12.753 23.0975C13.275 23.5205 13.8555 23.732 14.4945 23.732C14.9175 23.732 15.3585 23.624 15.8175 23.408C16.2765 23.192 16.6185 22.841 16.8435 22.355C16.9965 22.031 17.0865 21.662 17.1135 21.248C17.1405 20.825 17.154 20.3345 17.154 19.7765V6.56H20.016V19.7765C20.016 20.3525 20.0115 20.8655 20.0025 21.3155C20.0025 21.7655 19.9575 22.1885 19.8675 22.5845C19.7865 22.9805 19.6245 23.39 19.3815 23.813C18.8685 24.704 18.1935 25.3565 17.3565 25.7705C16.5195 26.1845 15.597 26.3915 14.589 26.3915Z" fill="white"/>
</svg>
