<svg width="76" height="28" viewBox="0 0 76 28" fill="none" xmlns="http://www.w3.org/2000/svg">
<path d="M7.704 27.54C5.724 27.54 4.074 27.024 2.754 25.992C1.446 24.96 0.528 23.568 0 21.816L4.284 20.79C4.416 21.522 4.8 22.152 5.436 22.68C6.072 23.208 6.774 23.472 7.542 23.472C8.046 23.472 8.58 23.34 9.144 23.076C9.708 22.8 10.128 22.362 10.404 21.762C10.572 21.378 10.668 20.922 10.692 20.394C10.728 19.854 10.746 19.23 10.746 18.522V1.08H15.138V18.522C15.138 19.326 15.132 20.034 15.12 20.646C15.12 21.246 15.06 21.816 14.94 22.356C14.832 22.884 14.61 23.43 14.274 23.994C13.566 25.218 12.642 26.118 11.502 26.694C10.362 27.258 9.096 27.54 7.704 27.54ZM32.2372 27.54C29.6452 27.54 27.4252 26.976 25.5772 25.848C23.7292 24.708 22.3072 23.124 21.3112 21.096C20.3272 19.068 19.8352 16.716 19.8352 14.04C19.8352 11.364 20.3272 9.012 21.3112 6.984C22.3072 4.956 23.7292 3.378 25.5772 2.25C27.4252 1.11 29.6452 0.539999 32.2372 0.539999C34.8292 0.539999 37.0492 1.11 38.8972 2.25C40.7572 3.378 42.1792 4.956 43.1632 6.984C44.1592 9.012 44.6572 11.364 44.6572 14.04C44.6572 16.716 44.1592 19.068 43.1632 21.096C42.1792 23.124 40.7572 24.708 38.8972 25.848C37.0492 26.976 34.8292 27.54 32.2372 27.54ZM32.2372 23.454C33.9772 23.466 35.4232 23.082 36.5752 22.302C37.7392 21.522 38.6092 20.424 39.1852 19.008C39.7732 17.592 40.0672 15.936 40.0672 14.04C40.0672 12.144 39.7732 10.5 39.1852 9.108C38.6092 7.704 37.7392 6.612 36.5752 5.832C35.4232 5.052 33.9772 4.65 32.2372 4.626C30.4972 4.614 29.0512 4.998 27.8992 5.778C26.7472 6.558 25.8772 7.656 25.2892 9.072C24.7132 10.488 24.4252 12.144 24.4252 14.04C24.4252 15.936 24.7132 17.586 25.2892 18.99C25.8652 20.382 26.7292 21.468 27.8812 22.248C29.0452 23.028 30.4972 23.43 32.2372 23.454ZM49.32 27V1.08H53.658V27H49.32ZM60.1298 27V1.08H64.4678V22.932H75.9158V27H60.1298Z" fill="white"/>
</svg>
