<svg width="378" height="312" viewBox="0 0 378 312" fill="none" xmlns="http://www.w3.org/2000/svg">
<g clip-path="url(#clip0_114733_1323)">
<path d="M204 201.5C204 189.074 214.074 179 226.5 179C238.926 179 249 189.074 249 201.5C249 213.926 238.926 224 226.5 224C214.074 224 204 213.926 204 201.5Z" fill="#333333"/>
<path d="M222 215C224.485 215 226.5 212.985 226.5 210.5V206H222C219.515 206 217.5 208.015 217.5 210.5C217.5 212.985 219.515 215 222 215Z" fill="#959595"/>
<path d="M217.5 201.5C217.5 199.015 219.515 197 222 197H226.5V206H222C219.515 206 217.5 203.985 217.5 201.5Z" fill="#777777"/>
<path d="M217.5 192.5C217.5 190.015 219.515 188 222 188H226.5V197H222C219.515 197 217.5 194.985 217.5 192.5Z" fill="#545454"/>
<path d="M226.5 188H231C233.485 188 235.5 190.015 235.5 192.5C235.5 194.985 233.485 197 231 197H226.5V188Z" fill="#979797"/>
<path d="M235.5 201.5C235.5 203.985 233.485 206 231 206C228.515 206 226.5 203.985 226.5 201.5C226.5 199.015 228.515 197 231 197C233.485 197 235.5 199.015 235.5 201.5Z" fill="#686E70"/>
</g>
<path d="M125.549 258.039L121 207H171L166.445 258.031L145.97 263.708L125.549 258.039Z" fill="#21292C"/>
<path d="M146 259.369L162.547 254.782L166.439 211.174H146V259.369Z" fill="#373E42"/>
<path d="M146 229.665H154.283L154.855 223.255H146V216.995H146.022H161.696L161.546 218.674L160.009 235.925H146V229.665Z" fill="white" fill-opacity="0.15"/>
<path d="M146.038 245.921L146.01 245.93L139.039 244.046L138.593 239.054H135.205H132.309L133.186 248.882L146.008 252.443L146.038 252.435V245.921Z" fill="#EBEBEB" fill-opacity="0.1"/>
<path d="M153.75 235.659L152.997 244.042L146.016 245.925V252.439L158.848 248.882L158.943 247.825L160.031 235.659H153.75Z" fill="white" fill-opacity="0.15"/>
<path d="M146.022 216.995V220.884V223.239V223.255H130.921H130.901L130.775 221.848L130.49 218.674L130.34 216.995H146.022Z" fill="#EBEBEB" fill-opacity="0.1"/>
<path d="M146 229.665V233.554V235.909V235.925H139.136H139.116L138.99 234.518L138.707 231.344L138.557 229.665H146Z" fill="#EBEBEB" fill-opacity="0.1"/>
<path d="M7.55371 301.718L0 217H83L75.4362 301.704L41.4496 311.127L7.55371 301.718Z" fill="#21292C"/>
<path d="M41.502 303.925L68.9669 296.311L75.4281 223.927H41.502V303.925Z" fill="#373E42"/>
<path d="M41.5023 255.349H27.753L26.805 244.709H41.5023V234.318H41.4653H15.4492L15.698 237.109L18.2495 265.74H41.5023V255.349Z" fill="#EBEBEB" fill-opacity="0.1"/>
<path d="M41.5037 282.332L41.4566 282.345L29.8857 279.222L29.1462 270.936H23.5221H18.7148L20.1705 287.246L41.4566 293.156L41.5037 293.143V282.332Z" fill="#EBEBEB" fill-opacity="0.1"/>
<path d="M41.4609 255.349V265.74H54.2555L53.052 279.217L41.4609 282.343V293.154L62.7639 287.248L62.9186 285.493L65.3592 258.139L65.6146 255.349H62.8144H41.4609Z" fill="white" fill-opacity="0.15"/>
<path d="M41.4609 234.318V240.773V244.686V244.709H66.5257H66.5593L66.7677 242.376L67.2417 237.109L67.4905 234.318H41.4609Z" fill="white" fill-opacity="0.15"/>
<g opacity="0.16">
<path d="M119 73V98H144H169V73V48H144H119V73Z" fill="#AAAAAA"/>
<path d="M159.293 71.0081C160.49 71.2867 161.578 71.9137 162.42 72.8099C162.883 73.2948 163.285 73.8345 163.618 74.417C163.634 74.4813 161.459 75.9403 160.141 76.7581C160.093 76.7903 159.904 76.5795 159.689 76.2653C159.449 75.8502 159.107 75.5029 158.696 75.2559C158.285 75.0089 157.819 74.8701 157.339 74.8528C155.823 74.7492 154.839 75.5438 154.855 76.8688C154.842 77.1942 154.916 77.5172 155.07 77.8045C155.404 78.4956 156.021 78.9081 157.966 79.7492C161.538 81.2885 163.077 82.3045 164.038 83.7492C164.572 84.6615 164.901 85.6797 165.001 86.7325C165.101 87.7853 164.97 88.8472 164.616 89.8438C164.131 90.9382 163.362 91.8828 162.388 92.5793C161.415 93.2758 160.273 93.6989 159.08 93.8045C157.814 93.9499 156.535 93.9367 155.271 93.7653C153.336 93.4475 151.553 92.5189 150.184 91.1153C149.667 90.5326 149.229 89.8841 148.882 89.1867C149.028 89.078 149.182 88.9801 149.343 88.8938C149.564 88.767 150.414 88.2831 151.2 87.8224L152.629 86.9885L152.929 87.4295C153.437 88.1566 154.085 88.7757 154.834 89.251C155.588 89.6644 156.442 89.8603 157.301 89.8168C158.16 89.7733 158.99 89.4921 159.698 89.0045C160.061 88.6485 160.288 88.1763 160.339 87.6702C160.39 87.1641 160.262 86.6562 159.977 86.2349C159.588 85.6795 158.795 85.2117 156.541 84.2349C154.774 83.6366 153.165 82.6465 151.834 81.3385C151.199 80.6153 150.731 79.762 150.461 78.8385C150.261 77.7863 150.232 76.7089 150.373 75.6474C150.638 74.4261 151.272 73.3157 152.189 72.4666C153.106 71.6176 154.262 71.0711 155.5 70.901C156.763 70.746 158.041 70.7821 159.293 71.0081ZM147.555 73.0956L147.571 75.1438H141.064V93.6367H136.461V75.1438H129.952V73.1367C129.934 72.4481 129.953 71.7591 130.007 71.0724C130.03 71.0403 133.991 71.0242 138.793 71.0331L147.53 71.0563L147.555 73.0956Z" fill="white"/>
</g>
<path d="M235.18 153.031C232.016 159.542 226.475 163.923 219.145 165.363C218.021 165.64 216.867 165.776 215.71 165.766C211.491 165.766 207.624 163.997 205.746 161.099C203.226 157.239 202.368 149.054 210.679 143C210.848 143.923 211.192 145.19 211.421 145.94C209.789 147.16 208.454 148.737 207.515 150.551C205.968 153.608 206.14 156.662 207.972 159.486C209.237 161.389 211.241 162.546 213.818 162.9C217.037 163.31 220.303 162.691 223.153 161.131C227.621 158.767 230.599 155.944 232.547 152.083C231.996 151.51 231.67 150.756 231.629 149.96C231.6 149.106 231.908 148.275 232.487 147.649C233.066 147.023 233.867 146.654 234.716 146.623H234.835C235.661 146.619 236.456 146.934 237.057 147.504C237.658 148.074 238.018 148.854 238.064 149.684C238.109 150.513 237.835 151.329 237.3 151.961C236.764 152.593 236.008 152.994 235.187 153.081L235.18 153.031ZM245.259 145.884C249.552 150.781 249.668 156.545 248.009 159.889C246.462 162.943 242.384 166 236.899 166C234.339 165.947 231.82 165.338 229.516 164.213C230.321 163.636 231.464 162.713 232.093 162.136C233.87 162.911 235.782 163.322 237.718 163.346C241.269 163.346 243.959 161.676 245.562 158.622C246.592 156.605 246.652 154.242 245.678 151.821C244.483 148.776 242.356 146.192 239.606 144.443C235.998 141.995 231.744 140.69 227.393 140.696H226.363C226.122 141.255 225.732 141.734 225.234 142.081C224.737 142.427 224.154 142.627 223.55 142.656H223.441C222.606 142.646 221.807 142.308 221.215 141.715C220.624 141.122 220.285 140.32 220.271 139.479C220.257 138.638 220.57 137.826 221.142 137.213C221.714 136.6 222.501 136.237 223.335 136.199H223.451C224.033 136.199 224.603 136.361 225.099 136.666C225.596 136.971 225.999 137.408 226.264 137.929H227.182C234.494 137.929 240.914 140.753 245.259 145.884ZM216.167 154.022C216.107 153.435 216.248 152.844 216.568 152.348C213.361 146.758 211.646 139.67 214.279 132.292C216.167 126.747 220.92 123 226.074 123C231.573 123 237.3 127.844 237.985 137.179C237.128 136.892 235.876 136.471 235.124 136.315C234.937 133.262 232.374 125.654 226.303 125.767C224.127 125.827 220.92 126.864 219.271 128.994C217.232 131.537 216.045 134.665 215.882 137.929C215.496 142.404 216.539 146.887 218.86 150.724C218.988 150.677 219.125 150.658 219.261 150.668H219.373C220.224 150.652 221.045 150.977 221.657 151.572C222.27 152.166 222.622 152.98 222.638 153.836C222.653 154.692 222.33 155.519 221.74 156.135C221.149 156.752 220.34 157.106 219.489 157.122H219.373C218.544 157.119 217.747 156.794 217.15 156.214C216.553 155.635 216.2 154.846 216.167 154.012V154.022Z" fill="#21292C"/>
<g opacity="0.08">
<path d="M83.3778 0H0V84H83.3778V0Z" fill="#B6B6B6"/>
<path d="M56.008 65.6252C56.7184 67.079 57.8221 68.3009 59.192 69.1502C60.5618 69.9994 62.1419 70.4414 63.7502 70.4252C66.996 70.4252 69.0715 68.7902 69.0715 66.5252C69.0715 63.8252 66.9394 62.8592 63.3661 61.2842L61.4067 60.4382C55.749 58.0112 51.997 54.9722 51.997 48.5462C51.997 42.6272 56.4636 38.1182 63.4703 38.1182C65.7385 37.9532 68.0047 38.4646 69.9863 39.5887C71.9679 40.7128 73.5771 42.3997 74.6132 44.4392L68.4879 48.3842C68.0889 47.373 67.3943 46.5078 66.496 45.9034C65.5978 45.2991 64.5384 44.9841 63.4584 45.0002C62.9872 44.9527 62.5114 45.0046 62.0612 45.1526C61.611 45.3005 61.1963 45.5414 60.8436 45.8598C60.4909 46.1781 60.2079 46.567 60.0126 47.0016C59.8173 47.4363 59.7141 47.9071 59.7094 48.3842C59.7094 50.7512 61.1655 51.7112 64.5274 53.1842L66.4868 54.0302C73.1451 56.9072 76.909 59.8382 76.909 66.4292C76.909 73.5362 71.3674 77.4302 63.9259 77.4302C61.0265 77.6163 58.1355 76.9531 55.6019 75.5206C53.0683 74.0881 51.0003 71.9475 49.6475 69.3572L56.008 65.6252ZM28.3296 66.3092C29.5594 68.5082 30.679 70.3682 33.371 70.3682C35.9438 70.3682 37.5696 69.3542 37.5696 65.4092V38.5682H45.4042V65.5142C45.4042 73.6862 40.6397 77.4062 33.7045 77.4062C31.253 77.5412 28.8184 76.9257 26.7206 75.6406C24.6229 74.3556 22.9602 72.4611 21.9512 70.2062L28.3296 66.3092Z" fill="black"/>
</g>
<path fill-rule="evenodd" clip-rule="evenodd" d="M226.498 66C214.073 66 204 76.0733 204 88.5014C204 98.4418 210.446 106.875 219.388 109.851C220.513 110.057 220.923 109.362 220.923 108.765C220.923 108.232 220.904 106.817 220.893 104.94C214.634 106.299 213.314 101.923 213.314 101.923C212.291 99.3247 210.815 98.6328 210.815 98.6328C208.772 97.2359 210.97 97.264 210.97 97.264C213.228 97.4241 214.416 99.5831 214.416 99.5831C216.423 103.021 219.683 102.028 220.964 101.453C221.169 99.9988 221.749 99.0073 222.393 98.4446C217.397 97.8772 212.144 95.9457 212.144 87.3245C212.144 84.8687 213.021 82.8594 214.46 81.2865C214.229 80.7172 213.456 78.4299 214.68 75.3318C214.68 75.3318 216.569 74.727 220.868 77.6388C222.663 77.1398 224.588 76.8898 226.5 76.8813C228.411 76.8898 230.336 77.1398 232.134 77.6388C236.43 74.727 238.315 75.3318 238.315 75.3318C239.543 78.4299 238.77 80.7172 238.539 81.2865C239.981 82.8594 240.853 84.8687 240.853 87.3245C240.853 95.9682 235.591 97.8697 230.578 98.4268C231.387 99.1215 232.106 100.494 232.106 102.594C232.106 105.601 232.079 108.028 232.079 108.765C232.079 109.368 232.483 110.068 233.625 109.848C242.559 106.866 249 98.439 249 88.5014C249 76.0733 238.926 66 226.498 66Z" fill="#010101"/>
<path d="M336.504 152.597C340.692 152.597 344.087 149.202 344.087 145.014C344.087 140.826 340.692 137.432 336.504 137.432C332.317 137.432 328.922 140.826 328.922 145.014C328.922 149.202 332.317 152.597 336.504 152.597Z" fill="#2A3437"/>
<path d="M336.5 172.9C342.452 178.689 348.322 182.113 353.051 182.113C354.6 182.113 356.068 181.787 357.291 181.053C361.53 178.607 363.08 172.492 361.612 163.768C361.367 162.219 361.041 160.67 360.634 159.039C362.264 158.55 363.732 158.061 365.199 157.572C373.434 154.392 378 149.989 378 145.179C378 140.287 373.434 135.884 365.199 132.786C363.732 132.215 362.264 131.726 360.634 131.318C361.041 129.688 361.367 128.139 361.612 126.589C362.998 117.702 361.449 111.506 357.209 109.06C355.986 108.326 354.519 108 352.97 108C348.322 108 342.37 111.424 336.418 117.213C330.548 111.424 324.678 108 319.949 108C318.4 108 316.932 108.326 315.709 109.06C311.47 111.506 309.92 117.621 311.388 126.345C311.633 127.894 311.959 129.443 312.366 131.074C310.736 131.563 309.268 132.052 307.801 132.541C299.566 135.721 295 140.124 295 144.934C295 149.826 299.566 154.229 307.801 157.327C309.268 157.898 310.736 158.387 312.366 158.795C311.959 160.425 311.633 161.974 311.388 163.524C310.002 172.248 311.551 178.444 315.709 180.808C316.932 181.542 318.4 181.868 319.949 181.868C324.678 182.031 330.548 178.607 336.5 172.9ZM331.934 161.893C333.402 161.974 334.951 161.974 336.5 161.974C338.049 161.974 339.598 161.974 341.066 161.893C339.598 163.85 338.049 165.643 336.5 167.356C334.951 165.643 333.402 163.85 331.934 161.893ZM321.824 153.495C322.639 154.881 323.373 156.186 324.27 157.49C321.743 157.164 319.378 156.756 317.095 156.267C317.829 154.066 318.644 151.783 319.623 149.5C320.275 150.805 321.009 152.191 321.824 153.495ZM317.095 133.846C319.378 133.357 321.743 132.949 324.27 132.623C323.455 133.927 322.639 135.232 321.824 136.618C321.009 138.004 320.275 139.308 319.623 140.694C318.563 138.33 317.748 136.047 317.095 133.846ZM321.58 145.016C322.639 142.814 323.781 140.613 325.085 138.412C326.308 136.292 327.694 134.172 329.081 132.052C331.527 131.889 333.972 131.807 336.5 131.807C339.109 131.807 341.555 131.889 343.919 132.052C345.387 134.172 346.692 136.292 347.915 138.412C349.219 140.613 350.361 142.814 351.42 145.016C350.361 147.217 349.219 149.418 347.915 151.62C346.692 153.74 345.305 155.86 343.919 157.979C341.473 158.142 339.028 158.224 336.5 158.224C333.891 158.224 331.445 158.142 329.081 157.979C327.613 155.86 326.308 153.74 325.085 151.62C323.781 149.418 322.639 147.217 321.58 145.016ZM353.459 140.613L351.257 136.536C350.442 135.15 349.708 133.846 348.811 132.541C351.339 132.867 353.703 133.275 355.986 133.764C355.252 136.047 354.437 138.33 353.459 140.613ZM353.459 149.418C354.437 151.701 355.252 153.984 355.986 156.186C353.703 156.675 351.339 157.083 348.811 157.409C349.627 156.104 350.442 154.8 351.257 153.414C351.991 152.191 352.725 150.805 353.459 149.418ZM355.334 177.71C354.682 178.118 353.866 178.281 352.97 178.281C348.974 178.281 344.001 175.02 339.109 170.128C341.473 167.6 343.756 164.747 346.039 161.567C349.871 161.241 353.54 160.67 356.965 159.855C357.372 161.322 357.617 162.79 357.861 164.257C359.003 171.188 358.106 176.161 355.334 177.71ZM359.574 134.743C368.705 137.352 374.168 141.347 374.168 145.016C374.168 148.195 370.417 151.375 363.813 153.903C362.509 154.392 361.041 154.881 359.574 155.289C358.514 151.946 357.209 148.522 355.579 145.016C357.209 141.51 358.595 138.085 359.574 134.743ZM353.051 111.75C353.948 111.75 354.682 111.914 355.416 112.321C358.106 113.87 359.084 118.762 357.943 125.774C357.698 127.16 357.372 128.628 357.046 130.177C353.622 129.443 349.953 128.872 346.121 128.465C343.919 125.285 341.555 122.431 339.191 119.904C344.083 115.093 349.056 111.75 353.051 111.75ZM341.066 128.139C339.598 128.057 338.049 128.057 336.5 128.057C334.951 128.057 333.402 128.057 331.934 128.139C333.402 126.182 334.951 124.388 336.5 122.676C338.049 124.388 339.598 126.263 341.066 128.139ZM317.666 112.321C318.318 111.914 319.134 111.75 320.03 111.75C324.026 111.75 328.999 115.012 333.891 119.904C331.527 122.431 329.244 125.285 326.961 128.465C323.129 128.791 319.46 129.361 316.035 130.177C315.628 128.709 315.383 127.242 315.139 125.774C313.997 118.844 314.894 113.952 317.666 112.321ZM313.426 155.289C304.295 152.68 298.832 148.685 298.832 145.016C298.832 141.836 302.583 138.656 309.187 136.129C310.491 135.639 311.959 135.15 313.426 134.743C314.486 138.085 315.791 141.51 317.421 145.016C315.791 148.522 314.405 152.028 313.426 155.289ZM315.139 164.257C315.383 162.871 315.709 161.404 316.035 159.855C319.46 160.588 323.129 161.159 326.961 161.567C329.162 164.747 331.527 167.6 333.891 170.128C328.999 174.938 324.026 178.281 320.03 178.281C319.134 178.281 318.4 178.118 317.666 177.71C314.894 176.161 313.997 171.188 315.139 164.257ZM311.714 197.849C313.508 195.647 313.589 193.201 312.611 190.755C311.633 188.309 309.594 187.168 307.067 187.086C304.05 187.005 300.952 187.086 297.935 187.086H297.364V208.203H299.81V200.213H303.642C304.132 200.213 304.539 200.376 304.784 200.784L309.676 208.366C309.757 208.529 310.002 208.774 310.165 208.774H313.345C311.388 205.757 309.513 202.904 307.556 199.969C309.268 199.724 310.736 199.153 311.714 197.849ZM299.81 197.686V189.614H300.707C302.583 189.614 304.539 189.532 306.415 189.695C308.616 189.777 310.165 191.489 310.165 193.691C310.165 195.892 308.371 197.604 306.17 197.686C304.213 197.767 302.256 197.686 299.81 197.686ZM331.363 198.746C330.059 193.038 324.841 191.571 320.846 193.364C317.748 194.75 316.361 197.441 316.28 200.784C316.198 203.311 316.932 205.594 318.889 207.306C321.09 209.263 323.781 209.508 326.553 209.019C328.102 208.693 329.488 207.959 330.548 206.817C330.14 206.247 329.733 205.676 329.325 205.187C327.042 207.143 324.515 207.796 321.743 206.491C319.949 205.594 319.052 203.393 318.889 201.762H331.527V200.702C331.608 199.969 331.527 199.316 331.363 198.746ZM319.052 200.05C318.807 197.604 321.253 194.995 323.944 194.995C327.042 194.914 328.999 196.789 329.081 200.05H319.052ZM344.083 192.957C342.86 192.712 341.555 192.631 340.332 192.712C338.375 192.875 336.663 193.772 335.277 195.24C335.685 195.81 336.011 196.381 336.5 197.033C336.663 196.87 336.826 196.707 336.989 196.626C338.294 195.403 339.843 194.75 341.718 194.914C343.186 194.995 344.572 195.484 344.979 196.952C345.306 198.093 345.224 199.316 345.306 200.539C345.061 200.539 344.979 200.458 344.898 200.376C342.941 198.746 340.74 198.419 338.375 198.99C336.174 199.561 334.788 201.273 334.625 203.474C334.462 206.002 335.603 207.877 337.805 208.774C339.191 209.345 340.74 209.345 342.207 209.019C343.349 208.774 343.838 208.122 345.469 207.225V208.285H347.751C347.751 205.024 347.833 201.028 347.751 197.278C347.751 194.914 346.365 193.446 344.083 192.957ZM345.224 203.23C345.142 203.474 345.224 203.719 345.224 203.964C345.224 205.676 344.816 206.247 343.186 206.899C342.044 207.306 340.821 207.47 339.598 207.062C338.212 206.654 337.234 205.431 337.234 204.045C337.152 202.659 338.049 201.273 339.435 200.865C341.31 200.213 343.023 200.621 344.572 201.762C345.061 202.17 345.387 202.578 345.224 203.23ZM357.943 195.158C360.063 194.506 362.02 194.914 363.487 196.707L363.732 196.87C364.303 196.381 364.792 195.892 365.444 195.321C365.199 195.077 365.118 194.914 364.955 194.669C362.59 192.141 357.943 191.815 355.089 193.854C351.094 196.789 351.176 202.496 353.133 205.513C355.008 208.366 357.698 209.345 360.878 208.937C362.753 208.693 364.303 207.796 365.526 206.247C364.955 205.757 364.384 205.268 363.813 204.697C363.65 204.861 363.569 204.942 363.487 205.105C361.286 207.551 357.617 207.306 355.66 204.697C354.519 203.148 354.274 201.355 354.6 199.561C354.763 197.523 355.823 195.892 357.943 195.158ZM374.902 206.247C374.739 206.328 374.657 206.41 374.657 206.41C374.005 206.899 373.353 206.98 372.619 206.736C371.885 206.41 371.804 205.757 371.722 205.105V195.81C371.722 195.647 371.722 195.973 371.804 195.158H374.902V192.712H371.64V188.636H369.194V193.038H367.075C366.912 193.038 366.667 193.201 366.667 193.364C366.585 193.935 366.667 194.343 366.667 195.158H369.276V205.594C369.276 206.899 369.602 208.04 370.744 208.693C371.967 209.426 374.331 209.263 375.391 208.366C375.554 208.285 375.636 207.959 375.636 207.877C375.391 207.388 375.146 206.817 374.902 206.247Z" fill="#2A3437"/>
<defs>
<clipPath id="clip0_114733_1323">
<rect width="45" height="45" fill="white" transform="translate(204 179)"/>
</clipPath>
</defs>
</svg>
